<svg width="7" height="11" viewBox="0 0 7 11" xmlns="http://www.w3.org/2000/svg">
<path d="M6.37502 1.14263V0.10736C6.37502 0.0176274 6.27189 -0.0319262 6.20225 0.0229845L0.164751 4.73861C0.113454 4.7785 0.0719468 4.82958 0.0433946 4.88796C0.0148424 4.94633 0 5.01046 0 5.07544C0 5.14042 0.0148424 5.20455 0.0433946 5.26292C0.0719468 5.3213 0.113454 5.37238 0.164751 5.41227L6.20225 10.1279C6.27323 10.1828 6.37502 10.1333 6.37502 10.0435V9.00825C6.37502 8.94263 6.34422 8.87968 6.29332 8.8395L1.47189 5.07611L6.29332 1.31138C6.34422 1.2712 6.37502 1.20825 6.37502 1.14263V1.14263Z" />
</svg>
