<svg viewBox="0 0 8 8" xmlns="http://www.w3.org/2000/svg">
<path d="M4.52525 4L7.74611 0.160736C7.8001 0.0969326 7.7547 0 7.67126 0H6.69212C6.63445 0 6.57924 0.0257668 6.5412 0.0699386L3.88476 3.23681L1.22832 0.0699386C1.19151 0.0257668 1.13629 0 1.0774 0H0.0982579C0.0148223 0 -0.0305766 0.0969326 0.0234112 0.160736L3.24427 4L0.0234112 7.83926C0.0113174 7.85348 0.00355882 7.87088 0.0010562 7.88938C-0.00144642 7.90788 0.00141206 7.92671 0.00929257 7.94363C0.0171731 7.96055 0.0297446 7.97486 0.0455143 7.98485C0.061284 7.99484 0.0795896 8.0001 0.0982579 8H1.0774C1.13507 8 1.19028 7.97423 1.22832 7.93006L3.88476 4.76319L6.5412 7.93006C6.57801 7.97423 6.63323 8 6.69212 8H7.67126C7.7547 8 7.8001 7.90307 7.74611 7.83926L4.52525 4Z" />
</svg>
