<svg viewBox="0 0 32 32" xmlns="http://www.w3.org/2000/svg">
<path d="M16 0.00012207C7.16429 0.00012207 0 7.16441 0 16.0001C0 24.8358 7.16429 32.0001 16 32.0001C24.8357 32.0001 32 24.8358 32 16.0001C32 7.16441 24.8357 0.00012207 16 0.00012207ZM22.9107 10.7751L15.3893 21.2037C15.2842 21.3504 15.1456 21.47 14.985 21.5525C14.8245 21.6349 14.6466 21.678 14.4661 21.678C14.2856 21.678 14.1077 21.6349 13.9471 21.5525C13.7866 21.47 13.648 21.3504 13.5429 21.2037L9.08929 15.0323C8.95357 14.843 9.08929 14.5787 9.32143 14.5787H10.9964C11.3607 14.5787 11.7071 14.7537 11.9214 15.0537L14.4643 18.5823L20.0786 10.7966C20.2929 10.5001 20.6357 10.3216 21.0036 10.3216H22.6786C22.9107 10.3216 23.0464 10.5858 22.9107 10.7751Z" />
</svg>
