<svg viewBox="0 0 24 24" xmlns="http://www.w3.org/2000/svg">
<path d="M2.1715 11.7771C2.20007 10.5286 2.45721 9.31714 2.94007 8.17714C3.43436 7.00571 4.14293 5.95714 5.04579 5.05143C5.94864 4.14571 7.00007 3.43714 8.1715 2.94286C9.38293 2.43143 10.6686 2.17143 11.9972 2.17143C13.3258 2.17143 14.6115 2.43143 15.8201 2.94286C16.9881 3.43613 18.0489 4.15234 18.9429 5.05143C19.2258 5.33429 19.4915 5.63429 19.7372 5.94857L18.0172 7.29143C17.9832 7.31776 17.9573 7.35315 17.9425 7.39355C17.9277 7.43395 17.9245 7.4777 17.9335 7.51979C17.9425 7.56187 17.9631 7.60057 17.9931 7.63144C18.023 7.66231 18.0611 7.68409 18.1029 7.69429L23.1229 8.92286C23.2658 8.95714 23.4058 8.84857 23.4058 8.70286L23.4286 3.53429C23.4286 3.34286 23.2086 3.23429 23.0601 3.35429L21.4486 4.61429C19.2515 1.80286 15.8344 0 11.9944 0C5.44864 0 0.122929 5.24571 7.14457e-05 11.7657C-0.00069114 11.7962 0.00465751 11.8265 0.0158024 11.8549C0.0269473 11.8833 0.0436628 11.9092 0.064964 11.931C0.0862653 11.9529 0.111721 11.9702 0.139832 11.9821C0.167943 11.9939 0.198139 12 0.228643 12H1.94293C2.06864 12 2.16864 11.9 2.1715 11.7771ZM23.7715 12H22.0572C21.9315 12 21.8315 12.1 21.8286 12.2229C21.8001 13.4714 21.5429 14.6829 21.0601 15.8229C20.5658 16.9943 19.8572 18.0457 18.9544 18.9486C18.0431 19.8636 16.9596 20.5892 15.7666 21.0835C14.5735 21.5778 13.2943 21.831 12.0029 21.8286C10.7119 21.831 9.43325 21.5777 8.24064 21.0834C7.04803 20.5891 5.96511 19.8636 5.05436 18.9486C4.7715 18.6657 4.50579 18.3657 4.26007 18.0514L5.98007 16.7086C6.0141 16.6822 6.04001 16.6468 6.05482 16.6065C6.06963 16.5661 6.07274 16.5223 6.06378 16.4802C6.05483 16.4381 6.03418 16.3994 6.00421 16.3686C5.97423 16.3377 5.93616 16.3159 5.89436 16.3057L0.874357 15.0771C0.7315 15.0429 0.5915 15.1514 0.5915 15.2971L0.5715 20.4686C0.5715 20.66 0.7915 20.7686 0.940071 20.6486L2.5515 19.3886C4.74864 22.1971 8.16579 24 12.0058 24C18.5544 24 23.8772 18.7514 24.0001 12.2343C24.0008 12.2038 23.9955 12.1735 23.9843 12.1451C23.9732 12.1167 23.9565 12.0908 23.9352 12.069C23.9139 12.0471 23.8884 12.0298 23.8603 12.0179C23.8322 12.0061 23.802 12 23.7715 12Z" />
</svg>
