<svg viewBox="0 0 16 16" fill="none" xmlns="http://www.w3.org/2000/svg">
<path d="M5.625 9H4.375C4.16875 9 4 8.83125 4 8.625V7.375C4 7.16875 4.16875 7 4.375 7H5.625C5.83125 7 6 7.16875 6 7.375V8.625C6 8.83125 5.83125 9 5.625 9ZM9 8.625V7.375C9 7.16875 8.83125 7 8.625 7H7.375C7.16875 7 7 7.16875 7 7.375V8.625C7 8.83125 7.16875 9 7.375 9H8.625C8.83125 9 9 8.83125 9 8.625ZM12 8.625V7.375C12 7.16875 11.8313 7 11.625 7H10.375C10.1687 7 10 7.16875 10 7.375V8.625C10 8.83125 10.1687 9 10.375 9H11.625C11.8313 9 12 8.83125 12 8.625ZM9 11.625V10.375C9 10.1687 8.83125 10 8.625 10H7.375C7.16875 10 7 10.1687 7 10.375V11.625C7 11.8313 7.16875 12 7.375 12H8.625C8.83125 12 9 11.8313 9 11.625ZM6 11.625V10.375C6 10.1687 5.83125 10 5.625 10H4.375C4.16875 10 4 10.1687 4 10.375V11.625C4 11.8313 4.16875 12 4.375 12H5.625C5.83125 12 6 11.8313 6 11.625ZM12 11.625V10.375C12 10.1687 11.8313 10 11.625 10H10.375C10.1687 10 10 10.1687 10 10.375V11.625C10 11.8313 10.1687 12 10.375 12H11.625C11.8313 12 12 11.8313 12 11.625ZM15 3.5V14.5C15 15.3281 14.3281 16 13.5 16H2.5C1.67188 16 1 15.3281 1 14.5V3.5C1 2.67188 1.67188 2 2.5 2H4V0.375C4 0.16875 4.16875 0 4.375 0H5.625C5.83125 0 6 0.16875 6 0.375V2H10V0.375C10 0.16875 10.1687 0 10.375 0H11.625C11.8313 0 12 0.16875 12 0.375V2H13.5C14.3281 2 15 2.67188 15 3.5ZM13.5 14.3125V5H2.5V14.3125C2.5 14.4156 2.58438 14.5 2.6875 14.5H13.3125C13.4156 14.5 13.5 14.4156 13.5 14.3125Z" />
</svg>
