<svg viewBox="0 0 15 12" xmlns="http://www.w3.org/2000/svg">
<path d="M14.4165 0H12.6466C12.2617 0 11.8956 0.184917 11.6692 0.501919L5.7367 8.72887L3.04973 5.00033C2.8233 4.6871 2.46102 4.49841 2.07231 4.49841H0.302384C0.0570854 4.49841 -0.0863201 4.77767 0.0570854 4.97768L4.75928 11.4989C4.87036 11.6539 5.0168 11.7802 5.18645 11.8674C5.3561 11.9545 5.54409 12 5.73481 12C5.92554 12 6.11352 11.9545 6.28318 11.8674C6.45283 11.7802 6.59927 11.6539 6.71035 11.4989L14.658 0.479277C14.8052 0.279264 14.6618 0 14.4165 0Z" fill="white"/>
</svg>
