<svg viewBox="0 0 16 16" xmlns="http://www.w3.org/2000/svg">
<path fill-rule="evenodd" clip-rule="evenodd" d="M0 8C0 3.58214 3.58214 0 8 0C12.4179 0 16 3.58214 16 8C16 12.4179 12.4179 16 8 16C3.58214 16 0 12.4179 0 8ZM1.35714 8C1.35714 11.6679 4.33214 14.6429 8 14.6429C11.6679 14.6429 14.6429 11.6679 14.6429 8C14.6429 4.33214 11.6679 1.35714 8 1.35714C4.33214 1.35714 1.35714 4.33214 1.35714 8ZM10.5017 5.16016H11.3392C11.4553 5.16016 11.5232 5.2923 11.4535 5.38694L7.6928 10.6012C7.64024 10.6746 7.57095 10.7344 7.49067 10.7756C7.4104 10.8168 7.32145 10.8384 7.2312 10.8384C7.14095 10.8384 7.052 10.8168 6.97172 10.7756C6.89144 10.7344 6.82215 10.6746 6.76959 10.6012L4.54459 7.51551C4.47673 7.42087 4.54459 7.28873 4.66066 7.28873H5.49816C5.68209 7.28873 5.85352 7.37801 5.96066 7.52623L7.23209 9.29051L10.0392 5.39766C10.1464 5.24766 10.3196 5.16016 10.5017 5.16016Z"/>
</svg>
