<svg viewBox="0 0 24 24" xmlns="http://www.w3.org/2000/svg">
<path d="M8.40642 5.37797H10.7775V16.9098C10.7775 17.0598 10.893 17.1825 11.0342 17.1825H12.9594C13.1005 17.1825 13.216 17.0598 13.216 16.9098V5.37797H15.5936C15.8086 5.37797 15.9273 5.1155 15.7957 4.93824L12.2021 0.104631C12.1781 0.0720376 12.1474 0.0456777 12.1124 0.0275495C12.0774 0.00942119 12.039 0 12 0C11.961 0 11.9226 0.00942119 11.8876 0.0275495C11.8525 0.0456777 11.8219 0.0720376 11.7979 0.104631L8.20428 4.93484C8.07273 5.1155 8.19144 5.37797 8.40642 5.37797ZM23.7433 15.8872H21.8182C21.677 15.8872 21.5615 16.0099 21.5615 16.1599V21.4093H2.4385V16.1599C2.4385 16.0099 2.32299 15.8872 2.18182 15.8872H0.256684C0.115508 15.8872 0 16.0099 0 16.1599V22.9092C0 23.5125 0.458824 24 1.02674 24H22.9733C23.5412 24 24 23.5125 24 22.9092V16.1599C24 16.0099 23.8845 15.8872 23.7433 15.8872Z" />
</svg>
