<svg viewBox="0 0 16 16" xmlns="http://www.w3.org/2000/svg">
<path fill-rule="evenodd" clip-rule="evenodd" d="M0 8C0 3.58214 3.58214 0 8 0C12.4179 0 16 3.58214 16 8C16 12.4179 12.4179 16 8 16C3.58214 16 0 12.4179 0 8ZM1.35714 8C1.35714 11.6679 4.33214 14.6429 8 14.6429C11.6679 14.6429 14.6429 11.6679 14.6429 8C14.6429 4.33214 11.6679 1.35714 8 1.35714C4.33214 1.35714 1.35714 4.33214 1.35714 8ZM7.39363 11.7489C7.23288 11.5882 7.14258 11.3702 7.14258 11.1429C7.14258 10.9155 7.23288 10.6975 7.39363 10.5368C7.55437 10.376 7.77239 10.2857 7.99972 10.2857C8.22705 10.2857 8.44507 10.376 8.60581 10.5368C8.76656 10.6975 8.85686 10.9155 8.85686 11.1429C8.85686 11.3702 8.76656 11.5882 8.60581 11.7489C8.44507 11.9097 8.22705 12 7.99972 12C7.77239 12 7.55437 11.9097 7.39363 11.7489ZM8.42829 9.14286H7.57115C7.49258 9.14286 7.42829 9.07857 7.42829 9V4.14286C7.42829 4.06429 7.49258 4 7.57115 4H8.42829C8.50686 4 8.57115 4.06429 8.57115 4.14286V9C8.57115 9.07857 8.50686 9.14286 8.42829 9.14286Z" />
</svg>
