<svg viewBox="0 0 32 32" fill="none" xmlns="http://www.w3.org/2000/svg">
<g clip-path="url(#clip0_7764_13792)">
<path fill-rule="evenodd" clip-rule="evenodd" d="M17.8092 6.06008C17.8092 6.91555 17.6162 7.4077 17.3039 7.68625L25.9369 10.2624C26.1734 10.0585 26.4812 9.93424 26.8186 9.93424C27.5638 9.93424 28.1679 10.536 28.1679 11.2784C28.1679 11.818 27.848 12.282 27.3875 12.4959L30.4088 21.1877C31.3667 21.34 32 21.5647 32 21.8619C32 23.0814 29.6122 24.07 26.6667 24.07C23.7212 24.07 21.3334 23.0814 21.3334 21.8619C21.3334 21.5461 22.0486 21.3121 23.1087 21.1598L26.1402 12.4388C25.8619 12.277 25.6474 12.0193 25.542 11.7107C25.4403 11.2876 25.2033 11.0206 24.8313 10.9096C24.3867 10.7769 23.9511 10.7619 23.4649 10.7452C22.8504 10.724 22.1549 10.7 21.2578 10.4323L16.8715 9.12352V18.0634C17.2131 18.3072 17.4364 18.705 17.4364 19.1556C17.4364 19.4545 17.3374 19.7296 17.1717 19.9528C17.6173 20.2833 17.9071 20.8104 17.9071 21.4063C17.9071 22.1275 17.4835 22.7484 16.8715 23.0404V24.9069C18.8634 25.0108 20.3808 25.5478 20.3808 26.1945C20.3808 26.2055 20.3804 26.2164 20.3795 26.2273C23.5946 26.5044 25.8145 27.0946 25.8145 27.778L25.8302 28.7315C25.8302 29.681 21.5531 30.4429 16.2675 30.4429C10.9818 30.4429 6.70482 29.6653 6.70482 28.7158L6.67347 27.778C6.67347 27.1055 8.82291 26.5233 11.9549 26.2408C11.9532 26.2255 11.9523 26.21 11.9523 26.1945C11.9523 25.5582 13.4211 25.0282 15.3653 24.9122V23.0705C14.7195 22.7921 14.2672 22.1521 14.2672 21.4064C14.2672 20.8106 14.557 20.2834 15.0025 19.9529C14.837 19.7297 14.7378 19.4547 14.7378 19.1557C14.7378 18.6781 14.9886 18.2598 15.3653 18.0214V8.67413L10.3631 7.18139C10.0302 7.08205 9.54294 6.81824 9.02227 6.53636C8.42503 6.21303 7.78388 5.86592 7.28147 5.71599C6.93334 5.6121 6.57601 5.6874 6.20947 5.94188C6.13887 5.99937 6.06215 6.04935 5.98072 6.09183L8.99551 14.7651C9.99797 14.9175 10.6666 15.1464 10.6666 15.4517C10.6666 16.6712 8.27881 17.6598 5.33331 17.6598C2.3878 17.6598 0 16.6712 0 15.4517C0 15.1555 0.629233 14.9313 1.58204 14.779L4.62346 6.02919C4.25247 5.78968 4.0064 5.37442 4.0064 4.90122C4.0064 4.15886 4.61047 3.55708 5.35566 3.55708C5.96274 3.55708 6.47588 3.95649 6.64542 4.50584L14.3984 6.81931C14.3558 6.60508 14.333 6.35403 14.333 6.06008C14.333 4.91488 14.9124 3.56152 16.0711 2C17.2299 3.56152 17.8092 4.91488 17.8092 6.06008ZM27.1206 12.5873L30.0942 21.1417C28.2178 20.8905 25.3594 20.8827 23.4221 21.1184L26.3988 12.5551C26.531 12.5982 26.672 12.6223 26.8188 12.6223C26.9227 12.6223 27.0235 12.6095 27.1206 12.5873ZM1.89685 14.7328L4.87782 6.15701C5.02656 6.21318 5.18715 6.24535 5.35566 6.24535C5.48114 6.24535 5.6021 6.22697 5.71733 6.19509L8.68103 14.7211C6.74027 14.4719 3.80662 14.4758 1.89685 14.7328Z" fill="#4D00B4"/>
</g>
<defs>
<clipPath id="clip0_7764_13792">
<rect width="32" height="32" fill="white"/>
</clipPath>
</defs>
</svg>
