<svg viewBox="0 0 16 16" xmlns="http://www.w3.org/2000/svg">
    <path d="M8 16C12.4183 16 16 12.4183 16 8C16 3.58172 12.4183 0 8 0C3.58172 0 0 3.58172 0 8C0 12.4183 3.58172 16 8 16Z" fill="black" />
    <path d="M12.744 6.67995H11.7947C11.272 5.22929 9.86668 4.23462 8.01334 4.23462H4.96534V6.67995H3.90668V7.55729H4.96534V8.47729H3.90668V9.35462H4.96534V11.7706H8.01334C9.84534 11.7706 11.24 10.784 11.776 9.35462H12.744V8.47729H11.9893C12.008 8.32262 12.0187 8.16262 12.0187 8.00262V7.98129C12.0187 7.83729 12.0107 7.69595 11.9973 7.55729H12.7467V6.67995H12.744ZM5.81868 5.01595H8.01334C9.37334 5.01595 10.384 5.68529 10.8507 6.67729H5.81868V5.01595V5.01595ZM8.01334 10.9813H5.81868V9.35195H10.8453C10.376 10.328 9.36801 10.9813 8.01334 10.9813ZM11.136 8.02129C11.136 8.17595 11.1253 8.32795 11.104 8.47462H5.81868V7.55462H11.1067C11.1253 7.69862 11.136 7.84795 11.136 7.99995V8.02129Z" fill="white"/>
</svg>
