<svg xmlns="http://www.w3.org/2000/svg" width="16" height="16" viewBox="0 0 16 16" fill="none">
  <path fill-rule="evenodd" clip-rule="evenodd" d="M7.06452 8C7.06452 6.87661 6.15565 5.96774 5.03226 5.96774C3.90887 5.96774 3 6.87661 3 8C3 9.12339 3.90887 10.0323 5.03226 10.0323C6.15565 10.0323 7.06452 9.12339 7.06452 8ZM5.03226 5.06452C3.90887 5.06452 3 4.15565 3 3.03226C3 1.90887 3.90887 1 5.03226 1C6.15565 1 7.06452 1.90887 7.06452 3.03226C7.06452 4.15565 6.15565 5.06452 5.03226 5.06452ZM5.03226 15C3.90887 15 3 14.0911 3 12.9677C3 11.8444 3.90887 10.9355 5.03226 10.9355C6.15565 10.9355 7.06452 11.8444 7.06452 12.9677C7.06452 14.0911 6.15565 15 5.03226 15ZM13.0645 8C13.0645 6.87661 12.1556 5.96774 11.0323 5.96774C9.90887 5.96774 9 6.87661 9 8C9 9.12339 9.90887 10.0323 11.0323 10.0323C12.1556 10.0323 13.0645 9.12339 13.0645 8ZM11.0323 5.06452C9.90887 5.06452 9 4.15565 9 3.03226C9 1.90887 9.90887 1 11.0323 1C12.1556 1 13.0645 1.90887 13.0645 3.03226C13.0645 4.15565 12.1556 5.06452 11.0323 5.06452ZM11.0323 15C9.90887 15 9 14.0911 9 12.9677C9 11.8444 9.90887 10.9355 11.0323 10.9355C12.1556 10.9355 13.0645 11.8444 13.0645 12.9677C13.0645 14.0911 12.1556 15 11.0323 15Z" fill="#6CC5FF"/>
</svg>