<svg width="12" height="15" viewBox="0 0 12 15" xmlns="http://www.w3.org/2000/svg">
<path d="M1.275 14.5L10.585 14.5C10.9523 14.5 11.25 14.2062 11.25 13.8438L11.25 13.4062C11.25 13.0438 10.9523 12.75 10.585 12.75C10.585 10.2627 9.17143 8.16352 7.23667 7.5C9.17143 6.83648 10.585 4.73732 10.585 2.25C10.9523 2.25 11.25 1.95619 11.25 1.59375L11.25 1.15625C11.25 0.793809 10.9523 0.5 10.585 0.5L1.275 0.499999C0.907727 0.499999 0.610001 0.793808 0.610001 1.15625L0.610001 1.59375C0.610001 1.95619 0.907726 2.25 1.275 2.25C1.275 4.73732 2.68857 6.83648 4.62333 7.5C2.68857 8.16352 1.275 10.2627 1.275 12.75C0.907725 12.75 0.61 13.0438 0.61 13.4062L0.61 13.8437C0.61 14.2062 0.907725 14.5 1.275 14.5ZM3.04833 2.25L8.81167 2.25C8.81167 4.36799 7.53143 6.1875 5.93 6.1875C4.32885 6.1875 3.04833 4.36868 3.04833 2.25Z" />
</svg>
