<svg viewBox="0 0 46 45" fill="none" xmlns="http://www.w3.org/2000/svg">
<path d="M14.5448 3.99219L35.6043 4.93228L44.1305 23.852L32.1017 41.1434L10.9277 39.7891L2.24707 19.2898L14.5448 3.99219ZM29.9842 14.898L14.7217 21.5577L27.7702 31.6335L29.9842 14.898ZM28.2172 11.5608L16.0199 6.3158L13.4577 17.3437L28.2172 11.5608ZM25.1256 34.1687L11.8695 24.7152L12.1902 37.5252L25.1256 34.1687ZM42.0131 23.8103L32.9798 14.6556L30.5955 32.2596L42.0131 23.8103ZM28.2336 36.2278L17.0538 39.146L30.2012 39.9868L28.2336 36.2278ZM40.2478 27.9637L30.4615 35.2445L32.4061 39.0399L40.2478 27.9637ZM35.6188 7.57573L33.7181 11.4728L40.7931 18.6553L35.6188 7.57573ZM33.2506 5.71087L20.8267 5.20721L31.0749 9.68396L33.2506 5.71087ZM12.7306 7.513L4.02846 18.4872L9.84654 19.7179L12.7306 7.513ZM9.49572 21.8707L3.64961 20.6345L9.74957 34.9866L9.49572 21.8707Z"/>
</svg>
