<svg xmlns="http://www.w3.org/2000/svg" viewBox="0 0 15 16" fill="none">
  <path d="M13.7759 2.06066L12.1289 0.439344C11.8431 0.158039 11.4555 2.08024e-06 11.0514 0L5.5873 0C4.74571 0 4.06349 0.671562 4.06349 1.5V3H1.52381C0.682222 3 0 3.67156 0 4.5V14.5C0 15.3284 0.682222 16 1.52381 16H8.63492C9.47651 16 10.1587 15.3284 10.1587 14.5V13H12.6984C13.54 13 14.2222 12.3284 14.2222 11.5V3.12131C14.2222 2.72349 14.0617 2.34196 13.7759 2.06066ZM8.44444 14.5H1.71429C1.66377 14.5 1.61532 14.4802 1.5796 14.4451C1.54388 14.4099 1.52381 14.3622 1.52381 14.3125V4.6875C1.52381 4.63777 1.54388 4.59008 1.5796 4.55492C1.61532 4.51975 1.66377 4.5 1.71429 4.5H4.06349V11.5C4.06349 12.3284 4.74571 13 5.5873 13H8.63492V14.3125C8.63492 14.3622 8.61485 14.4099 8.57913 14.4451C8.54341 14.4802 8.49496 14.5 8.44444 14.5ZM12.5079 11.5H5.77778C5.72726 11.5 5.67881 11.4802 5.64309 11.4451C5.60737 11.4099 5.5873 11.3622 5.5873 11.3125V1.6875C5.5873 1.63777 5.60737 1.59008 5.64309 1.55492C5.67881 1.51975 5.72726 1.5 5.77778 1.5H9.14286V4.25C9.14286 4.66422 9.48397 5 9.90476 5H12.6984V11.3125C12.6984 11.3622 12.6783 11.4099 12.6426 11.4451C12.6069 11.4802 12.5585 11.5 12.5079 11.5ZM12.6984 3.5H10.6667V1.5H10.9724C11.023 1.5 11.0714 1.51975 11.1071 1.55491L12.6426 3.06641C12.6603 3.08382 12.6744 3.10449 12.6839 3.12724C12.6935 3.14999 12.6984 3.17438 12.6984 3.199V3.5Z" fill="#009AFF"/>
</svg>